<?xml version="1.0" standalone="no"?>
<!DOCTYPE svg PUBLIC "-//W3C//DTD SVG 20010904//EN"
 "http://www.w3.org/TR/2001/REC-SVG-20010904/DTD/svg10.dtd">
<svg version="1.0" xmlns="http://www.w3.org/2000/svg"
 width="205.000000pt" height="205.000000pt" viewBox="0 0 205.000000 205.000000"
 preserveAspectRatio="xMidYMid meet">
<metadata>
Created by potrace 1.11, written by Peter Selinger 2001-2013
</metadata>
<g transform="translate(0.000000,205.000000) scale(0.100000,-0.100000)"
fill="#000000" stroke="none">
<path d="M680 1671 l-49 -100 -166 0 c-195 0 -235 -12 -309 -91 -74 -79 -76
-92 -76 -560 0 -468 2 -481 76 -560 25 -27 66 -57 94 -69 49 -21 58 -22 750
-22 687 0 701 0 747 21 52 23 130 96 125 118 -2 8 1 11 7 7 6 -3 12 -1 12 4 3
21 4 26 14 41 6 9 11 183 13 439 3 489 2 500 -74 581 -74 79 -116 91 -309 91
l-164 0 -51 99 -51 100 -269 0 -270 0 -50 -99z"/>
</g>
</svg>
